# Blender v2.81 (sub 16) OBJ File: ''
# www.blender.org
o Cube
v 0.503336 0.020778 0.074521
v 0.503336 0.020778 -0.074521
v 0.503336 -0.020778 0.074521
v -0.503336 -0.020778 0.074521
v -0.503336 0.020778 0.074521
v -0.503336 0.020778 -0.074521
v -0.503336 -0.020778 -0.074521
v -0.503336 -0.009948 -0.074521
v -0.500000 -0.009948 -0.070976
v 0.500000 -0.009948 0.070976
v -0.500000 -0.009948 0.070976
v 0.500000 -0.009948 -0.070976
v -0.500000 -0.009948 -0.070976
v 0.500000 -0.009948 0.070976
v -0.500000 -0.009948 0.070976
v 0.500000 -0.009948 -0.070976
v 0.503336 -0.020778 -0.074521
v 0.503336 -0.009948 0.074521
v -0.503336 -0.009948 0.074521
v 0.503336 -0.009948 -0.074521
v -0.500000 0.009948 0.070976
v 0.500000 0.009948 -0.070976
v -0.500000 0.009948 -0.070976
v 0.500000 0.009948 0.070976
v -0.503336 0.009948 0.074521
v 0.503336 0.009948 -0.074521
v -0.503336 0.009948 -0.074521
v 0.503336 0.009948 0.074521
vt 0.953650 1.000000
vt 0.938200 0.000000
vt 0.953650 0.000000
vt 0.000000 0.000000
vt 0.000000 0.000000
vt 0.000000 0.000000
vt 0.969100 0.282022
vt 0.984550 0.430076
vt 0.969101 0.430076
vt 0.000000 0.000000
vt 0.000000 0.000000
vt 0.000000 0.000000
vt 0.000000 0.000000
vt 0.637896 1.000000
vt 0.850528 0.000000
vt 0.850528 1.000000
vt 0.997487 0.282022
vt 0.969100 0.141011
vt 0.997487 0.141011
vt 0.878914 0.000000
vt 0.907301 0.993371
vt 0.878914 0.993371
vt 0.000000 0.000000
vt 0.878914 0.993371
vt 0.850528 0.000000
vt 0.878914 0.000000
vt 0.430321 0.003314
vt 0.637896 0.000000
vt 0.632838 0.003314
vt 0.632838 0.996686
vt 0.425264 1.000000
vt 0.430322 0.996686
vt 0.637896 1.000000
vt 0.425264 0.000000
vt 0.212632 0.000000
vt 0.000000 1.000000
vt 0.000000 0.000000
vt 0.953650 0.000000
vt 0.969100 1.000000
vt 0.953651 1.000000
vt 0.984550 0.282022
vt 1.000000 0.430076
vt 0.984550 0.430076
vt 0.969100 0.430076
vt 0.984550 0.578130
vt 0.969101 0.578130
vt 0.425264 0.000000
vt 0.420206 0.996686
vt 0.420206 0.003314
vt 0.212632 1.000000
vt 0.217689 0.003314
vt 0.217690 0.996686
vt 0.212632 0.000000
vt 0.997487 0.141011
vt 0.969100 0.000000
vt 0.997487 0.000000
vt 1.000000 0.578130
vt 0.984550 0.430076
vt 1.000000 0.430076
vt 0.907300 0.000000
vt 0.922750 1.000000
vt 0.907301 1.000000
vt 0.938200 1.000000
vt 0.922750 0.000000
vt 0.938200 0.000000
vt 0.938201 1.000000
vt 0.984550 0.282022
vt 0.637896 0.000000
vt 0.969100 0.282022
vt 0.907300 0.000000
vt 0.850528 0.993371
vt 0.212632 1.000000
vt 0.969100 0.000000
vt 1.000000 0.282022
vt 0.984550 0.430076
vt 0.425264 1.000000
vt 0.969101 0.141011
vt 0.984550 0.578130
vt 0.922750 0.000000
vt 0.922751 1.000000
vn 0.0000 0.0000 1.0000
vn -1.0000 0.0000 0.0000
vn 0.0000 1.0000 -0.0000
vn 1.0000 0.0000 0.0000
vn 0.0000 0.0000 -1.0000
vn 0.0000 -1.0000 0.0000
s off
f 19/1/1 3/2/1 18/3/1
f 9/4/1 16/5/1 13/6/1
f 25/7/2 6/8/2 27/9/2
f 10/10/1 15/11/1 14/12/1
f 12/13/1 14/12/1 16/5/1
f 5/14/3 2/15/3 6/16/3
f 24/17/4 12/18/4 22/19/4
f 22/20/5 9/21/5 23/22/5
f 11/23/1 13/6/1 15/11/1
f 21/24/1 10/25/1 24/26/1
f 14/27/3 20/28/3 16/29/3
f 13/30/3 19/31/3 15/32/3
f 16/29/3 8/33/3 13/30/3
f 15/32/3 18/34/3 14/27/3
f 3/35/6 7/36/6 17/37/6
f 20/38/5 7/39/5 8/40/5
f 18/41/4 17/42/4 20/43/4
f 4/44/2 8/45/2 7/46/2
f 28/47/6 21/48/6 24/49/6
f 27/50/6 22/51/6 23/52/6
f 28/47/6 22/51/6 26/53/6
f 11/54/2 23/55/2 9/56/2
f 1/57/4 26/58/4 2/59/4
f 2/60/5 27/61/5 6/62/5
f 5/63/1 28/64/1 1/65/1
f 21/48/6 27/50/6 23/52/6
f 19/1/1 4/66/1 3/2/1
f 9/4/1 12/13/1 16/5/1
f 25/7/2 5/67/2 6/8/2
f 10/10/1 11/23/1 15/11/1
f 12/13/1 10/10/1 14/12/1
f 5/14/3 1/68/3 2/15/3
f 24/17/4 10/69/4 12/18/4
f 22/20/5 12/70/5 9/21/5
f 11/23/1 9/4/1 13/6/1
f 21/24/1 11/71/1 10/25/1
f 14/27/3 18/34/3 20/28/3
f 13/30/3 8/33/3 19/31/3
f 16/29/3 20/28/3 8/33/3
f 15/32/3 19/31/3 18/34/3
f 3/35/6 4/72/6 7/36/6
f 20/38/5 17/73/5 7/39/5
f 18/41/4 3/74/4 17/42/4
f 4/44/2 19/75/2 8/45/2
f 28/47/6 25/76/6 21/48/6
f 27/50/6 26/53/6 22/51/6
f 28/47/6 24/49/6 22/51/6
f 11/54/2 21/77/2 23/55/2
f 1/57/4 28/78/4 26/58/4
f 2/60/5 26/79/5 27/61/5
f 5/63/1 25/80/1 28/64/1
f 21/48/6 25/76/6 27/50/6
